ISO-10303-21;
HEADER;
/* Generated by software containing ST-Developer
 * from STEP Tools, Inc. (www.steptools.com) 
 */
/* OPTION: using custom renumber hook */

FILE_DESCRIPTION(
/* description */ ('STEP AP242 Edition 2',
'CAx-IF Rec.Pracs.---Representation and Presentation of Product Manufa
cturing Information (PMI)---4.0---2014-10-13',
'CAx-IF Rec.Pracs.---3D Tessellated Geometry---0.4---2014-09-14','2;1',
'CAx-IF Rec.Pracs.---User Defined Attributes---1.5---2016-08-15'),
/* implementation_level */ '2;1');

FILE_NAME(
/* name */ 'Pad Guide - Pad Guide',
/* time_stamp */ '2026-05-29T22:49:32Z',
/* author */ (''),
/* organization */ (''),
/* preprocessor_version */ 'ST-DEVELOPER v20',
/* originating_system */ 'ONSHAPE BY PTC INC, 1.215',
/* authorisation */ '  ');

FILE_SCHEMA (('AP242_MANAGED_MODEL_BASED_3D_ENGINEERING_MIM_LF { 1 0 10303 442 3 1 4 }'));
ENDSEC;

DATA;
#10=SHAPE_REPRESENTATION_RELATIONSHIP('','',#707,#11);
#11=ADVANCED_BREP_SHAPE_REPRESENTATION('',(#705),#1105);
#12=ORIENTED_EDGE('',*,*,#204,.F.);
#13=ORIENTED_EDGE('',*,*,#205,.F.);
#14=ORIENTED_EDGE('',*,*,#206,.T.);
#15=ORIENTED_EDGE('',*,*,#207,.T.);
#16=ORIENTED_EDGE('',*,*,#208,.F.);
#17=ORIENTED_EDGE('',*,*,#209,.T.);
#18=ORIENTED_EDGE('',*,*,#210,.T.);
#19=ORIENTED_EDGE('',*,*,#211,.F.);
#20=ORIENTED_EDGE('',*,*,#212,.F.);
#21=ORIENTED_EDGE('',*,*,#213,.T.);
#22=ORIENTED_EDGE('',*,*,#207,.F.);
#23=ORIENTED_EDGE('',*,*,#214,.F.);
#24=ORIENTED_EDGE('',*,*,#215,.F.);
#25=ORIENTED_EDGE('',*,*,#216,.F.);
#26=ORIENTED_EDGE('',*,*,#217,.T.);
#27=ORIENTED_EDGE('',*,*,#218,.T.);
#28=ORIENTED_EDGE('',*,*,#219,.F.);
#29=ORIENTED_EDGE('',*,*,#220,.F.);
#30=ORIENTED_EDGE('',*,*,#221,.T.);
#31=ORIENTED_EDGE('',*,*,#222,.T.);
#32=ORIENTED_EDGE('',*,*,#223,.T.);
#33=ORIENTED_EDGE('',*,*,#224,.F.);
#34=ORIENTED_EDGE('',*,*,#225,.F.);
#35=ORIENTED_EDGE('',*,*,#226,.T.);
#36=ORIENTED_EDGE('',*,*,#227,.T.);
#37=ORIENTED_EDGE('',*,*,#228,.F.);
#38=ORIENTED_EDGE('',*,*,#229,.F.);
#39=ORIENTED_EDGE('',*,*,#230,.T.);
#40=ORIENTED_EDGE('',*,*,#231,.T.);
#41=ORIENTED_EDGE('',*,*,#232,.T.);
#42=ORIENTED_EDGE('',*,*,#233,.F.);
#43=ORIENTED_EDGE('',*,*,#234,.T.);
#44=ORIENTED_EDGE('',*,*,#235,.T.);
#45=ORIENTED_EDGE('',*,*,#236,.T.);
#46=ORIENTED_EDGE('',*,*,#237,.F.);
#47=ORIENTED_EDGE('',*,*,#238,.F.);
#48=ORIENTED_EDGE('',*,*,#239,.T.);
#49=ORIENTED_EDGE('',*,*,#240,.T.);
#50=ORIENTED_EDGE('',*,*,#241,.F.);
#51=ORIENTED_EDGE('',*,*,#242,.F.);
#52=ORIENTED_EDGE('',*,*,#243,.F.);
#53=ORIENTED_EDGE('',*,*,#244,.T.);
#54=ORIENTED_EDGE('',*,*,#245,.T.);
#55=ORIENTED_EDGE('',*,*,#246,.T.);
#56=ORIENTED_EDGE('',*,*,#247,.F.);
#57=ORIENTED_EDGE('',*,*,#248,.F.);
#58=ORIENTED_EDGE('',*,*,#249,.F.);
#59=ORIENTED_EDGE('',*,*,#250,.T.);
#60=ORIENTED_EDGE('',*,*,#251,.F.);
#61=ORIENTED_EDGE('',*,*,#252,.F.);
#62=ORIENTED_EDGE('',*,*,#253,.F.);
#63=ORIENTED_EDGE('',*,*,#254,.T.);
#64=ORIENTED_EDGE('',*,*,#255,.T.);
#65=ORIENTED_EDGE('',*,*,#256,.F.);
#66=ORIENTED_EDGE('',*,*,#257,.F.);
#67=ORIENTED_EDGE('',*,*,#258,.T.);
#68=ORIENTED_EDGE('',*,*,#259,.T.);
#69=ORIENTED_EDGE('',*,*,#260,.F.);
#70=ORIENTED_EDGE('',*,*,#261,.F.);
#71=ORIENTED_EDGE('',*,*,#262,.F.);
#72=ORIENTED_EDGE('',*,*,#263,.T.);
#73=ORIENTED_EDGE('',*,*,#264,.T.);
#74=ORIENTED_EDGE('',*,*,#265,.F.);
#75=ORIENTED_EDGE('',*,*,#266,.F.);
#76=ORIENTED_EDGE('',*,*,#267,.T.);
#77=ORIENTED_EDGE('',*,*,#268,.T.);
#78=ORIENTED_EDGE('',*,*,#269,.T.);
#79=ORIENTED_EDGE('',*,*,#205,.T.);
#80=ORIENTED_EDGE('',*,*,#270,.F.);
#81=ORIENTED_EDGE('',*,*,#267,.F.);
#82=ORIENTED_EDGE('',*,*,#271,.T.);
#83=ORIENTED_EDGE('',*,*,#216,.T.);
#84=ORIENTED_EDGE('',*,*,#253,.T.);
#85=ORIENTED_EDGE('',*,*,#272,.T.);
#86=ORIENTED_EDGE('',*,*,#230,.F.);
#87=ORIENTED_EDGE('',*,*,#273,.F.);
#88=ORIENTED_EDGE('',*,*,#246,.F.);
#89=ORIENTED_EDGE('',*,*,#274,.T.);
#90=ORIENTED_EDGE('',*,*,#237,.T.);
#91=ORIENTED_EDGE('',*,*,#275,.F.);
#92=ORIENTED_EDGE('',*,*,#260,.T.);
#93=ORIENTED_EDGE('',*,*,#276,.T.);
#94=ORIENTED_EDGE('',*,*,#223,.F.);
#95=ORIENTED_EDGE('',*,*,#277,.F.);
#96=ORIENTED_EDGE('',*,*,#278,.F.);
#97=ORIENTED_EDGE('',*,*,#263,.F.);
#98=ORIENTED_EDGE('',*,*,#279,.T.);
#99=ORIENTED_EDGE('',*,*,#220,.T.);
#100=ORIENTED_EDGE('',*,*,#239,.F.);
#101=ORIENTED_EDGE('',*,*,#280,.F.);
#102=ORIENTED_EDGE('',*,*,#208,.T.);
#103=ORIENTED_EDGE('',*,*,#281,.T.);
#104=ORIENTED_EDGE('',*,*,#242,.T.);
#105=ORIENTED_EDGE('',*,*,#282,.F.);
#106=ORIENTED_EDGE('',*,*,#209,.F.);
#107=ORIENTED_EDGE('',*,*,#280,.T.);
#108=ORIENTED_EDGE('',*,*,#241,.T.);
#109=ORIENTED_EDGE('',*,*,#283,.F.);
#110=ORIENTED_EDGE('',*,*,#210,.F.);
#111=ORIENTED_EDGE('',*,*,#282,.T.);
#112=ORIENTED_EDGE('',*,*,#240,.F.);
#113=ORIENTED_EDGE('',*,*,#281,.F.);
#114=ORIENTED_EDGE('',*,*,#211,.T.);
#115=ORIENTED_EDGE('',*,*,#283,.T.);
#116=ORIENTED_EDGE('',*,*,#284,.F.);
#117=ORIENTED_EDGE('',*,*,#256,.T.);
#118=ORIENTED_EDGE('',*,*,#285,.T.);
#119=ORIENTED_EDGE('',*,*,#227,.F.);
#120=ORIENTED_EDGE('',*,*,#286,.F.);
#121=ORIENTED_EDGE('',*,*,#249,.T.);
#122=ORIENTED_EDGE('',*,*,#287,.T.);
#123=ORIENTED_EDGE('',*,*,#234,.F.);
#124=ORIENTED_EDGE('',*,*,#261,.T.);
#125=ORIENTED_EDGE('',*,*,#277,.T.);
#126=ORIENTED_EDGE('',*,*,#222,.F.);
#127=ORIENTED_EDGE('',*,*,#288,.F.);
#128=ORIENTED_EDGE('',*,*,#262,.T.);
#129=ORIENTED_EDGE('',*,*,#288,.T.);
#130=ORIENTED_EDGE('',*,*,#221,.F.);
#131=ORIENTED_EDGE('',*,*,#279,.F.);
#132=ORIENTED_EDGE('',*,*,#278,.T.);
#133=ORIENTED_EDGE('',*,*,#219,.T.);
#134=ORIENTED_EDGE('',*,*,#289,.F.);
#135=ORIENTED_EDGE('',*,*,#264,.F.);
#136=ORIENTED_EDGE('',*,*,#265,.T.);
#137=ORIENTED_EDGE('',*,*,#289,.T.);
#138=ORIENTED_EDGE('',*,*,#218,.F.);
#139=ORIENTED_EDGE('',*,*,#290,.F.);
#140=ORIENTED_EDGE('',*,*,#266,.T.);
#141=ORIENTED_EDGE('',*,*,#290,.T.);
#142=ORIENTED_EDGE('',*,*,#217,.F.);
#143=ORIENTED_EDGE('',*,*,#271,.F.);
#144=ORIENTED_EDGE('',*,*,#273,.T.);
#145=ORIENTED_EDGE('',*,*,#229,.T.);
#146=ORIENTED_EDGE('',*,*,#291,.F.);
#147=ORIENTED_EDGE('',*,*,#254,.F.);
#148=ORIENTED_EDGE('',*,*,#291,.T.);
#149=ORIENTED_EDGE('',*,*,#228,.T.);
#150=ORIENTED_EDGE('',*,*,#285,.F.);
#151=ORIENTED_EDGE('',*,*,#255,.F.);
#152=ORIENTED_EDGE('',*,*,#257,.T.);
#153=ORIENTED_EDGE('',*,*,#284,.T.);
#154=ORIENTED_EDGE('',*,*,#226,.F.);
#155=ORIENTED_EDGE('',*,*,#292,.F.);
#156=ORIENTED_EDGE('',*,*,#292,.T.);
#157=ORIENTED_EDGE('',*,*,#225,.T.);
#158=ORIENTED_EDGE('',*,*,#293,.F.);
#159=ORIENTED_EDGE('',*,*,#258,.F.);
#160=ORIENTED_EDGE('',*,*,#293,.T.);
#161=ORIENTED_EDGE('',*,*,#224,.T.);
#162=ORIENTED_EDGE('',*,*,#276,.F.);
#163=ORIENTED_EDGE('',*,*,#259,.F.);
#164=ORIENTED_EDGE('',*,*,#248,.T.);
#165=ORIENTED_EDGE('',*,*,#294,.T.);
#166=ORIENTED_EDGE('',*,*,#235,.F.);
#167=ORIENTED_EDGE('',*,*,#287,.F.);
#168=ORIENTED_EDGE('',*,*,#247,.T.);
#169=ORIENTED_EDGE('',*,*,#275,.T.);
#170=ORIENTED_EDGE('',*,*,#236,.F.);
#171=ORIENTED_EDGE('',*,*,#294,.F.);
#172=ORIENTED_EDGE('',*,*,#252,.T.);
#173=ORIENTED_EDGE('',*,*,#295,.T.);
#174=ORIENTED_EDGE('',*,*,#231,.F.);
#175=ORIENTED_EDGE('',*,*,#272,.F.);
#176=ORIENTED_EDGE('',*,*,#286,.T.);
#177=ORIENTED_EDGE('',*,*,#233,.T.);
#178=ORIENTED_EDGE('',*,*,#296,.F.);
#179=ORIENTED_EDGE('',*,*,#250,.F.);
#180=ORIENTED_EDGE('',*,*,#251,.T.);
#181=ORIENTED_EDGE('',*,*,#296,.T.);
#182=ORIENTED_EDGE('',*,*,#232,.F.);
#183=ORIENTED_EDGE('',*,*,#295,.F.);
#184=ORIENTED_EDGE('',*,*,#270,.T.);
#185=ORIENTED_EDGE('',*,*,#215,.T.);
#186=ORIENTED_EDGE('',*,*,#297,.F.);
#187=ORIENTED_EDGE('',*,*,#268,.F.);
#188=ORIENTED_EDGE('',*,*,#297,.T.);
#189=ORIENTED_EDGE('',*,*,#214,.T.);
#190=ORIENTED_EDGE('',*,*,#206,.F.);
#191=ORIENTED_EDGE('',*,*,#269,.F.);
#192=ORIENTED_EDGE('',*,*,#243,.T.);
#193=ORIENTED_EDGE('',*,*,#204,.T.);
#194=ORIENTED_EDGE('',*,*,#213,.F.);
#195=ORIENTED_EDGE('',*,*,#298,.F.);
#196=ORIENTED_EDGE('',*,*,#298,.T.);
#197=ORIENTED_EDGE('',*,*,#212,.T.);
#198=ORIENTED_EDGE('',*,*,#299,.F.);
#199=ORIENTED_EDGE('',*,*,#244,.F.);
#200=ORIENTED_EDGE('',*,*,#299,.T.);
#201=ORIENTED_EDGE('',*,*,#238,.T.);
#202=ORIENTED_EDGE('',*,*,#274,.F.);
#203=ORIENTED_EDGE('',*,*,#245,.F.);
#204=EDGE_CURVE('',#300,#301,#364,.T.);
#205=EDGE_CURVE('',#302,#300,#365,.T.);
#206=EDGE_CURVE('',#302,#303,#366,.T.);
#207=EDGE_CURVE('',#303,#301,#367,.T.);
#208=EDGE_CURVE('',#304,#305,#368,.T.);
#209=EDGE_CURVE('',#304,#306,#369,.T.);
#210=EDGE_CURVE('',#306,#307,#370,.T.);
#211=EDGE_CURVE('',#305,#307,#371,.T.);
#212=EDGE_CURVE('',#308,#309,#372,.T.);
#213=EDGE_CURVE('',#308,#301,#373,.T.);
#214=EDGE_CURVE('',#310,#303,#374,.T.);
#215=EDGE_CURVE('',#311,#310,#375,.T.);
#216=EDGE_CURVE('',#312,#311,#376,.T.);
#217=EDGE_CURVE('',#312,#313,#377,.T.);
#218=EDGE_CURVE('',#313,#314,#378,.T.);
#219=EDGE_CURVE('',#315,#314,#379,.T.);
#220=EDGE_CURVE('',#316,#315,#380,.T.);
#221=EDGE_CURVE('',#316,#317,#381,.T.);
#222=EDGE_CURVE('',#317,#318,#382,.T.);
#223=EDGE_CURVE('',#318,#319,#383,.T.);
#224=EDGE_CURVE('',#320,#319,#384,.T.);
#225=EDGE_CURVE('',#321,#320,#385,.T.);
#226=EDGE_CURVE('',#321,#322,#386,.T.);
#227=EDGE_CURVE('',#322,#323,#387,.T.);
#228=EDGE_CURVE('',#324,#323,#388,.T.);
#229=EDGE_CURVE('',#325,#324,#389,.T.);
#230=EDGE_CURVE('',#325,#326,#390,.T.);
#231=EDGE_CURVE('',#326,#327,#391,.T.);
#232=EDGE_CURVE('',#327,#328,#392,.T.);
#233=EDGE_CURVE('',#329,#328,#393,.T.);
#234=EDGE_CURVE('',#329,#330,#394,.T.);
#235=EDGE_CURVE('',#330,#331,#395,.T.);
#236=EDGE_CURVE('',#331,#332,#396,.T.);
#237=EDGE_CURVE('',#333,#332,#397,.T.);
#238=EDGE_CURVE('',#309,#333,#398,.T.);
#239=EDGE_CURVE('',#334,#335,#399,.T.);
#240=EDGE_CURVE('',#335,#336,#400,.T.);
#241=EDGE_CURVE('',#337,#336,#401,.T.);
#242=EDGE_CURVE('',#334,#337,#402,.T.);
#243=EDGE_CURVE('',#338,#300,#403,.T.);
#244=EDGE_CURVE('',#338,#339,#404,.T.);
#245=EDGE_CURVE('',#339,#340,#405,.T.);
#246=EDGE_CURVE('',#340,#341,#406,.T.);
#247=EDGE_CURVE('',#342,#341,#407,.T.);
#248=EDGE_CURVE('',#343,#342,#408,.T.);
#249=EDGE_CURVE('',#344,#343,#409,.T.);
#250=EDGE_CURVE('',#344,#345,#410,.T.);
#251=EDGE_CURVE('',#346,#345,#411,.T.);
#252=EDGE_CURVE('',#347,#346,#412,.T.);
#253=EDGE_CURVE('',#348,#347,#413,.T.);
#254=EDGE_CURVE('',#348,#349,#414,.T.);
#255=EDGE_CURVE('',#349,#350,#415,.T.);
#256=EDGE_CURVE('',#351,#350,#416,.T.);
#257=EDGE_CURVE('',#352,#351,#417,.T.);
#258=EDGE_CURVE('',#352,#353,#418,.T.);
#259=EDGE_CURVE('',#353,#354,#419,.T.);
#260=EDGE_CURVE('',#355,#354,#420,.T.);
#261=EDGE_CURVE('',#356,#355,#421,.T.);
#262=EDGE_CURVE('',#357,#356,#422,.T.);
#263=EDGE_CURVE('',#357,#358,#423,.T.);
#264=EDGE_CURVE('',#358,#359,#424,.T.);
#265=EDGE_CURVE('',#360,#359,#425,.T.);
#266=EDGE_CURVE('',#361,#360,#426,.T.);
#267=EDGE_CURVE('',#361,#362,#427,.T.);
#268=EDGE_CURVE('',#362,#363,#428,.T.);
#269=EDGE_CURVE('',#363,#302,#429,.T.);
#270=EDGE_CURVE('',#362,#311,#430,.T.);
#271=EDGE_CURVE('',#361,#312,#431,.T.);
#272=EDGE_CURVE('',#347,#326,#432,.T.);
#273=EDGE_CURVE('',#348,#325,#433,.T.);
#274=EDGE_CURVE('',#340,#333,#434,.T.);
#275=EDGE_CURVE('',#341,#332,#435,.T.);
#276=EDGE_CURVE('',#354,#319,#436,.T.);
#277=EDGE_CURVE('',#355,#318,#437,.T.);
#278=EDGE_CURVE('',#358,#315,#438,.T.);
#279=EDGE_CURVE('',#357,#316,#439,.T.);
#280=EDGE_CURVE('',#304,#334,#440,.T.);
#281=EDGE_CURVE('',#305,#335,#441,.T.);
#282=EDGE_CURVE('',#306,#337,#442,.T.);
#283=EDGE_CURVE('',#307,#336,#443,.T.);
#284=EDGE_CURVE('',#351,#322,#444,.T.);
#285=EDGE_CURVE('',#350,#323,#445,.T.);
#286=EDGE_CURVE('',#344,#329,#446,.T.);
#287=EDGE_CURVE('',#343,#330,#447,.T.);
#288=EDGE_CURVE('',#356,#317,#448,.T.);
#289=EDGE_CURVE('',#359,#314,#449,.T.);
#290=EDGE_CURVE('',#360,#313,#450,.T.);
#291=EDGE_CURVE('',#349,#324,#451,.T.);
#292=EDGE_CURVE('',#352,#321,#452,.T.);
#293=EDGE_CURVE('',#353,#320,#453,.T.);
#294=EDGE_CURVE('',#342,#331,#454,.T.);
#295=EDGE_CURVE('',#346,#327,#455,.T.);
#296=EDGE_CURVE('',#345,#328,#456,.T.);
#297=EDGE_CURVE('',#363,#310,#457,.T.);
#298=EDGE_CURVE('',#338,#308,#458,.T.);
#299=EDGE_CURVE('',#339,#309,#459,.T.);
#300=VERTEX_POINT('',#912);
#301=VERTEX_POINT('',#913);
#302=VERTEX_POINT('',#915);
#303=VERTEX_POINT('',#917);
#304=VERTEX_POINT('',#921);
#305=VERTEX_POINT('',#922);
#306=VERTEX_POINT('',#924);
#307=VERTEX_POINT('',#926);
#308=VERTEX_POINT('',#929);
#309=VERTEX_POINT('',#930);
#310=VERTEX_POINT('',#933);
#311=VERTEX_POINT('',#935);
#312=VERTEX_POINT('',#937);
#313=VERTEX_POINT('',#939);
#314=VERTEX_POINT('',#941);
#315=VERTEX_POINT('',#943);
#316=VERTEX_POINT('',#945);
#317=VERTEX_POINT('',#947);
#318=VERTEX_POINT('',#949);
#319=VERTEX_POINT('',#951);
#320=VERTEX_POINT('',#953);
#321=VERTEX_POINT('',#955);
#322=VERTEX_POINT('',#957);
#323=VERTEX_POINT('',#959);
#324=VERTEX_POINT('',#961);
#325=VERTEX_POINT('',#963);
#326=VERTEX_POINT('',#965);
#327=VERTEX_POINT('',#967);
#328=VERTEX_POINT('',#969);
#329=VERTEX_POINT('',#971);
#330=VERTEX_POINT('',#973);
#331=VERTEX_POINT('',#975);
#332=VERTEX_POINT('',#977);
#333=VERTEX_POINT('',#979);
#334=VERTEX_POINT('',#983);
#335=VERTEX_POINT('',#984);
#336=VERTEX_POINT('',#986);
#337=VERTEX_POINT('',#988);
#338=VERTEX_POINT('',#991);
#339=VERTEX_POINT('',#993);
#340=VERTEX_POINT('',#995);
#341=VERTEX_POINT('',#997);
#342=VERTEX_POINT('',#999);
#343=VERTEX_POINT('',#1001);
#344=VERTEX_POINT('',#1003);
#345=VERTEX_POINT('',#1005);
#346=VERTEX_POINT('',#1007);
#347=VERTEX_POINT('',#1009);
#348=VERTEX_POINT('',#1011);
#349=VERTEX_POINT('',#1013);
#350=VERTEX_POINT('',#1015);
#351=VERTEX_POINT('',#1017);
#352=VERTEX_POINT('',#1019);
#353=VERTEX_POINT('',#1021);
#354=VERTEX_POINT('',#1023);
#355=VERTEX_POINT('',#1025);
#356=VERTEX_POINT('',#1027);
#357=VERTEX_POINT('',#1029);
#358=VERTEX_POINT('',#1031);
#359=VERTEX_POINT('',#1033);
#360=VERTEX_POINT('',#1035);
#361=VERTEX_POINT('',#1037);
#362=VERTEX_POINT('',#1039);
#363=VERTEX_POINT('',#1041);
#364=LINE('',#911,#460);
#365=LINE('',#914,#461);
#366=LINE('',#916,#462);
#367=LINE('',#918,#463);
#368=LINE('',#920,#464);
#369=LINE('',#923,#465);
#370=LINE('',#925,#466);
#371=LINE('',#927,#467);
#372=LINE('',#928,#468);
#373=LINE('',#931,#469);
#374=LINE('',#932,#470);
#375=LINE('',#934,#471);
#376=LINE('',#936,#472);
#377=LINE('',#938,#473);
#378=LINE('',#940,#474);
#379=LINE('',#942,#475);
#380=LINE('',#944,#476);
#381=LINE('',#946,#477);
#382=LINE('',#948,#478);
#383=LINE('',#950,#479);
#384=LINE('',#952,#480);
#385=LINE('',#954,#481);
#386=LINE('',#956,#482);
#387=LINE('',#958,#483);
#388=LINE('',#960,#484);
#389=LINE('',#962,#485);
#390=LINE('',#964,#486);
#391=LINE('',#966,#487);
#392=LINE('',#968,#488);
#393=LINE('',#970,#489);
#394=LINE('',#972,#490);
#395=LINE('',#974,#491);
#396=LINE('',#976,#492);
#397=LINE('',#978,#493);
#398=LINE('',#980,#494);
#399=LINE('',#982,#495);
#400=LINE('',#985,#496);
#401=LINE('',#987,#497);
#402=LINE('',#989,#498);
#403=LINE('',#990,#499);
#404=LINE('',#992,#500);
#405=LINE('',#994,#501);
#406=LINE('',#996,#502);
#407=LINE('',#998,#503);
#408=LINE('',#1000,#504);
#409=LINE('',#1002,#505);
#410=LINE('',#1004,#506);
#411=LINE('',#1006,#507);
#412=LINE('',#1008,#508);
#413=LINE('',#1010,#509);
#414=LINE('',#1012,#510);
#415=LINE('',#1014,#511);
#416=LINE('',#1016,#512);
#417=LINE('',#1018,#513);
#418=LINE('',#1020,#514);
#419=LINE('',#1022,#515);
#420=LINE('',#1024,#516);
#421=LINE('',#1026,#517);
#422=LINE('',#1028,#518);
#423=LINE('',#1030,#519);
#424=LINE('',#1032,#520);
#425=LINE('',#1034,#521);
#426=LINE('',#1036,#522);
#427=LINE('',#1038,#523);
#428=LINE('',#1040,#524);
#429=LINE('',#1042,#525);
#430=LINE('',#1044,#526);
#431=LINE('',#1045,#527);
#432=LINE('',#1047,#528);
#433=LINE('',#1048,#529);
#434=LINE('',#1050,#530);
#435=LINE('',#1051,#531);
#436=LINE('',#1053,#532);
#437=LINE('',#1054,#533);
#438=LINE('',#1056,#534);
#439=LINE('',#1057,#535);
#440=LINE('',#1059,#536);
#441=LINE('',#1060,#537);
#442=LINE('',#1062,#538);
#443=LINE('',#1064,#539);
#444=LINE('',#1067,#540);
#445=LINE('',#1068,#541);
#446=LINE('',#1070,#542);
#447=LINE('',#1071,#543);
#448=LINE('',#1073,#544);
#449=LINE('',#1076,#545);
#450=LINE('',#1078,#546);
#451=LINE('',#1081,#547);
#452=LINE('',#1084,#548);
#453=LINE('',#1086,#549);
#454=LINE('',#1089,#550);
#455=LINE('',#1092,#551);
#456=LINE('',#1094,#552);
#457=LINE('',#1097,#553);
#458=LINE('',#1100,#554);
#459=LINE('',#1102,#555);
#460=VECTOR('',#747,1.);
#461=VECTOR('',#748,1.);
#462=VECTOR('',#749,1.);
#463=VECTOR('',#750,1.);
#464=VECTOR('',#753,1.);
#465=VECTOR('',#754,1.);
#466=VECTOR('',#755,1.);
#467=VECTOR('',#756,1.);
#468=VECTOR('',#757,1.);
#469=VECTOR('',#758,1.);
#470=VECTOR('',#759,1.);
#471=VECTOR('',#760,1.);
#472=VECTOR('',#761,1.);
#473=VECTOR('',#762,1.);
#474=VECTOR('',#763,1.);
#475=VECTOR('',#764,1.);
#476=VECTOR('',#765,1.);
#477=VECTOR('',#766,1.);
#478=VECTOR('',#767,1.);
#479=VECTOR('',#768,1.);
#480=VECTOR('',#769,1.);
#481=VECTOR('',#770,1.);
#482=VECTOR('',#771,1.);
#483=VECTOR('',#772,1.);
#484=VECTOR('',#773,1.);
#485=VECTOR('',#774,1.);
#486=VECTOR('',#775,1.);
#487=VECTOR('',#776,1.);
#488=VECTOR('',#777,1.);
#489=VECTOR('',#778,1.);
#490=VECTOR('',#779,1.);
#491=VECTOR('',#780,1.);
#492=VECTOR('',#781,1.);
#493=VECTOR('',#782,1.);
#494=VECTOR('',#783,1.);
#495=VECTOR('',#786,1.);
#496=VECTOR('',#787,1.);
#497=VECTOR('',#788,1.);
#498=VECTOR('',#789,1.);
#499=VECTOR('',#790,1.);
#500=VECTOR('',#791,1.);
#501=VECTOR('',#792,1.);
#502=VECTOR('',#793,1.);
#503=VECTOR('',#794,1.);
#504=VECTOR('',#795,1.);
#505=VECTOR('',#796,1.);
#506=VECTOR('',#797,1.);
#507=VECTOR('',#798,1.);
#508=VECTOR('',#799,1.);
#509=VECTOR('',#800,1.);
#510=VECTOR('',#801,1.);
#511=VECTOR('',#802,1.);
#512=VECTOR('',#803,1.);
#513=VECTOR('',#804,1.);
#514=VECTOR('',#805,1.);
#515=VECTOR('',#806,1.);
#516=VECTOR('',#807,1.);
#517=VECTOR('',#808,1.);
#518=VECTOR('',#809,1.);
#519=VECTOR('',#810,1.);
#520=VECTOR('',#811,1.);
#521=VECTOR('',#812,1.);
#522=VECTOR('',#813,1.);
#523=VECTOR('',#814,1.);
#524=VECTOR('',#815,1.);
#525=VECTOR('',#816,1.);
#526=VECTOR('',#819,1.);
#527=VECTOR('',#820,1.);
#528=VECTOR('',#823,1.);
#529=VECTOR('',#824,1.);
#530=VECTOR('',#827,1.);
#531=VECTOR('',#828,1.);
#532=VECTOR('',#831,1.);
#533=VECTOR('',#832,1.);
#534=VECTOR('',#835,1.);
#535=VECTOR('',#836,1.);
#536=VECTOR('',#839,1.);
#537=VECTOR('',#840,1.);
#538=VECTOR('',#843,1.);
#539=VECTOR('',#846,1.);
#540=VECTOR('',#851,1.);
#541=VECTOR('',#852,1.);
#542=VECTOR('',#855,1.);
#543=VECTOR('',#856,1.);
#544=VECTOR('',#859,1.);
#545=VECTOR('',#864,1.);
#546=VECTOR('',#867,1.);
#547=VECTOR('',#872,1.);
#548=VECTOR('',#877,1.);
#549=VECTOR('',#880,1.);
#550=VECTOR('',#885,1.);
#551=VECTOR('',#890,1.);
#552=VECTOR('',#893,1.);
#553=VECTOR('',#898,1.);
#554=VECTOR('',#903,1.);
#555=VECTOR('',#906,1.);
#556=EDGE_LOOP('',(#12,#13,#14,#15));
#557=EDGE_LOOP('',(#16,#17,#18,#19));
#558=EDGE_LOOP('',(#20,#21,#22,#23,#24,#25,#26,#27,#28,#29,#30,#31,#32,
#33,#34,#35,#36,#37,#38,#39,#40,#41,#42,#43,#44,#45,#46,#47));
#559=EDGE_LOOP('',(#48,#49,#50,#51));
#560=EDGE_LOOP('',(#52,#53,#54,#55,#56,#57,#58,#59,#60,#61,#62,#63,#64,
#65,#66,#67,#68,#69,#70,#71,#72,#73,#74,#75,#76,#77,#78,#79));
#561=EDGE_LOOP('',(#80,#81,#82,#83));
#562=EDGE_LOOP('',(#84,#85,#86,#87));
#563=EDGE_LOOP('',(#88,#89,#90,#91));
#564=EDGE_LOOP('',(#92,#93,#94,#95));
#565=EDGE_LOOP('',(#96,#97,#98,#99));
#566=EDGE_LOOP('',(#100,#101,#102,#103));
#567=EDGE_LOOP('',(#104,#105,#106,#107));
#568=EDGE_LOOP('',(#108,#109,#110,#111));
#569=EDGE_LOOP('',(#112,#113,#114,#115));
#570=EDGE_LOOP('',(#116,#117,#118,#119));
#571=EDGE_LOOP('',(#120,#121,#122,#123));
#572=EDGE_LOOP('',(#124,#125,#126,#127));
#573=EDGE_LOOP('',(#128,#129,#130,#131));
#574=EDGE_LOOP('',(#132,#133,#134,#135));
#575=EDGE_LOOP('',(#136,#137,#138,#139));
#576=EDGE_LOOP('',(#140,#141,#142,#143));
#577=EDGE_LOOP('',(#144,#145,#146,#147));
#578=EDGE_LOOP('',(#148,#149,#150,#151));
#579=EDGE_LOOP('',(#152,#153,#154,#155));
#580=EDGE_LOOP('',(#156,#157,#158,#159));
#581=EDGE_LOOP('',(#160,#161,#162,#163));
#582=EDGE_LOOP('',(#164,#165,#166,#167));
#583=EDGE_LOOP('',(#168,#169,#170,#171));
#584=EDGE_LOOP('',(#172,#173,#174,#175));
#585=EDGE_LOOP('',(#176,#177,#178,#179));
#586=EDGE_LOOP('',(#180,#181,#182,#183));
#587=EDGE_LOOP('',(#184,#185,#186,#187));
#588=EDGE_LOOP('',(#188,#189,#190,#191));
#589=EDGE_LOOP('',(#192,#193,#194,#195));
#590=EDGE_LOOP('',(#196,#197,#198,#199));
#591=EDGE_LOOP('',(#200,#201,#202,#203));
#592=FACE_BOUND('',#556,.T.);
#593=FACE_BOUND('',#557,.T.);
#594=FACE_BOUND('',#558,.T.);
#595=FACE_BOUND('',#559,.T.);
#596=FACE_BOUND('',#560,.T.);
#597=FACE_BOUND('',#561,.T.);
#598=FACE_BOUND('',#562,.T.);
#599=FACE_BOUND('',#563,.T.);
#600=FACE_BOUND('',#564,.T.);
#601=FACE_BOUND('',#565,.T.);
#602=FACE_BOUND('',#566,.T.);
#603=FACE_BOUND('',#567,.T.);
#604=FACE_BOUND('',#568,.T.);
#605=FACE_BOUND('',#569,.T.);
#606=FACE_BOUND('',#570,.T.);
#607=FACE_BOUND('',#571,.T.);
#608=FACE_BOUND('',#572,.T.);
#609=FACE_BOUND('',#573,.T.);
#610=FACE_BOUND('',#574,.T.);
#611=FACE_BOUND('',#575,.T.);
#612=FACE_BOUND('',#576,.T.);
#613=FACE_BOUND('',#577,.T.);
#614=FACE_BOUND('',#578,.T.);
#615=FACE_BOUND('',#579,.T.);
#616=FACE_BOUND('',#580,.T.);
#617=FACE_BOUND('',#581,.T.);
#618=FACE_BOUND('',#582,.T.);
#619=FACE_BOUND('',#583,.T.);
#620=FACE_BOUND('',#584,.T.);
#621=FACE_BOUND('',#585,.T.);
#622=FACE_BOUND('',#586,.T.);
#623=FACE_BOUND('',#587,.T.);
#624=FACE_BOUND('',#588,.T.);
#625=FACE_BOUND('',#589,.T.);
#626=FACE_BOUND('',#590,.T.);
#627=FACE_BOUND('',#591,.T.);
#628=PLANE('',#709);
#629=PLANE('',#710);
#630=PLANE('',#711);
#631=PLANE('',#712);
#632=PLANE('',#713);
#633=PLANE('',#714);
#634=PLANE('',#715);
#635=PLANE('',#716);
#636=PLANE('',#717);
#637=PLANE('',#718);
#638=PLANE('',#719);
#639=PLANE('',#720);
#640=PLANE('',#721);
#641=PLANE('',#722);
#642=PLANE('',#723);
#643=PLANE('',#724);
#644=PLANE('',#725);
#645=PLANE('',#726);
#646=PLANE('',#727);
#647=PLANE('',#728);
#648=PLANE('',#729);
#649=PLANE('',#730);
#650=PLANE('',#731);
#651=PLANE('',#732);
#652=PLANE('',#733);
#653=PLANE('',#734);
#654=PLANE('',#735);
#655=PLANE('',#736);
#656=PLANE('',#737);
#657=PLANE('',#738);
#658=PLANE('',#739);
#659=PLANE('',#740);
#660=PLANE('',#741);
#661=PLANE('',#742);
#662=ADVANCED_FACE('',(#592),#628,.F.);
#663=ADVANCED_FACE('',(#593,#594),#629,.T.);
#664=ADVANCED_FACE('',(#595,#596),#630,.F.);
#665=ADVANCED_FACE('',(#597),#631,.F.);
#666=ADVANCED_FACE('',(#598),#632,.T.);
#667=ADVANCED_FACE('',(#599),#633,.F.);
#668=ADVANCED_FACE('',(#600),#634,.T.);
#669=ADVANCED_FACE('',(#601),#635,.F.);
#670=ADVANCED_FACE('',(#602),#636,.T.);
#671=ADVANCED_FACE('',(#603),#637,.F.);
#672=ADVANCED_FACE('',(#604),#638,.F.);
#673=ADVANCED_FACE('',(#605),#639,.T.);
#674=ADVANCED_FACE('',(#606),#640,.T.);
#675=ADVANCED_FACE('',(#607),#641,.T.);
#676=ADVANCED_FACE('',(#608),#642,.T.);
#677=ADVANCED_FACE('',(#609),#643,.T.);
#678=ADVANCED_FACE('',(#610),#644,.F.);
#679=ADVANCED_FACE('',(#611),#645,.T.);
#680=ADVANCED_FACE('',(#612),#646,.T.);
#681=ADVANCED_FACE('',(#613),#647,.F.);
#682=ADVANCED_FACE('',(#614),#648,.F.);
#683=ADVANCED_FACE('',(#615),#649,.T.);
#684=ADVANCED_FACE('',(#616),#650,.F.);
#685=ADVANCED_FACE('',(#617),#651,.F.);
#686=ADVANCED_FACE('',(#618),#652,.T.);
#687=ADVANCED_FACE('',(#619),#653,.T.);
#688=ADVANCED_FACE('',(#620),#654,.T.);
#689=ADVANCED_FACE('',(#621),#655,.F.);
#690=ADVANCED_FACE('',(#622),#656,.T.);
#691=ADVANCED_FACE('',(#623),#657,.F.);
#692=ADVANCED_FACE('',(#624),#658,.F.);
#693=ADVANCED_FACE('',(#625),#659,.T.);
#694=ADVANCED_FACE('',(#626),#660,.F.);
#695=ADVANCED_FACE('',(#627),#661,.F.);
#696=CLOSED_SHELL('',(#662,#663,#664,#665,#666,#667,#668,#669,#670,#671,
#672,#673,#674,#675,#676,#677,#678,#679,#680,#681,#682,#683,#684,#685,#686,
#687,#688,#689,#690,#691,#692,#693,#694,#695));
#697=STYLED_ITEM('',(#698),#705);
#698=PRESENTATION_STYLE_ASSIGNMENT((#699));
#699=SURFACE_STYLE_USAGE(.BOTH.,#700);
#700=SURFACE_SIDE_STYLE('',(#701));
#701=SURFACE_STYLE_FILL_AREA(#702);
#702=FILL_AREA_STYLE('',(#703));
#703=FILL_AREA_STYLE_COLOUR('',#704);
#704=COLOUR_RGB('',0.615686274509804,0.811764705882353,0.929411764705882);
#705=MANIFOLD_SOLID_BREP('Pad Guide',#696);
#706=SHAPE_DEFINITION_REPRESENTATION(#1110,#707);
#707=SHAPE_REPRESENTATION('Pad Guide',(#708),#1105);
#708=AXIS2_PLACEMENT_3D('',#909,#743,#744);
#709=AXIS2_PLACEMENT_3D('',#910,#745,#746);
#710=AXIS2_PLACEMENT_3D('',#919,#751,#752);
#711=AXIS2_PLACEMENT_3D('',#981,#784,#785);
#712=AXIS2_PLACEMENT_3D('',#1043,#817,#818);
#713=AXIS2_PLACEMENT_3D('',#1046,#821,#822);
#714=AXIS2_PLACEMENT_3D('',#1049,#825,#826);
#715=AXIS2_PLACEMENT_3D('',#1052,#829,#830);
#716=AXIS2_PLACEMENT_3D('',#1055,#833,#834);
#717=AXIS2_PLACEMENT_3D('',#1058,#837,#838);
#718=AXIS2_PLACEMENT_3D('',#1061,#841,#842);
#719=AXIS2_PLACEMENT_3D('',#1063,#844,#845);
#720=AXIS2_PLACEMENT_3D('',#1065,#847,#848);
#721=AXIS2_PLACEMENT_3D('',#1066,#849,#850);
#722=AXIS2_PLACEMENT_3D('',#1069,#853,#854);
#723=AXIS2_PLACEMENT_3D('',#1072,#857,#858);
#724=AXIS2_PLACEMENT_3D('',#1074,#860,#861);
#725=AXIS2_PLACEMENT_3D('',#1075,#862,#863);
#726=AXIS2_PLACEMENT_3D('',#1077,#865,#866);
#727=AXIS2_PLACEMENT_3D('',#1079,#868,#869);
#728=AXIS2_PLACEMENT_3D('',#1080,#870,#871);
#729=AXIS2_PLACEMENT_3D('',#1082,#873,#874);
#730=AXIS2_PLACEMENT_3D('',#1083,#875,#876);
#731=AXIS2_PLACEMENT_3D('',#1085,#878,#879);
#732=AXIS2_PLACEMENT_3D('',#1087,#881,#882);
#733=AXIS2_PLACEMENT_3D('',#1088,#883,#884);
#734=AXIS2_PLACEMENT_3D('',#1090,#886,#887);
#735=AXIS2_PLACEMENT_3D('',#1091,#888,#889);
#736=AXIS2_PLACEMENT_3D('',#1093,#891,#892);
#737=AXIS2_PLACEMENT_3D('',#1095,#894,#895);
#738=AXIS2_PLACEMENT_3D('',#1096,#896,#897);
#739=AXIS2_PLACEMENT_3D('',#1098,#899,#900);
#740=AXIS2_PLACEMENT_3D('',#1099,#901,#902);
#741=AXIS2_PLACEMENT_3D('',#1101,#904,#905);
#742=AXIS2_PLACEMENT_3D('',#1103,#907,#908);
#743=DIRECTION('',(0.,0.,1.));
#744=DIRECTION('',(1.,0.,0.));
#745=DIRECTION('',(0.,-1.,0.));
#746=DIRECTION('',(0.,0.,-1.));
#747=DIRECTION('',(0.,0.,1.));
#748=DIRECTION('',(1.,0.,0.));
#749=DIRECTION('',(0.,0.,1.));
#750=DIRECTION('',(1.,0.,0.));
#751=DIRECTION('',(0.,0.,1.));
#752=DIRECTION('',(1.,0.,0.));
#753=DIRECTION('',(1.,0.,0.));
#754=DIRECTION('',(-2.31296463463574E-16,-1.,0.));
#755=DIRECTION('',(1.,0.,0.));
#756=DIRECTION('',(-2.31296463463574E-16,-1.,0.));
#757=DIRECTION('',(1.,0.,0.));
#758=DIRECTION('',(0.,1.,0.));
#759=DIRECTION('',(0.,-1.,0.));
#760=DIRECTION('',(-1.,0.,0.));
#761=DIRECTION('',(-1.50845519650157E-16,-1.,0.));
#762=DIRECTION('',(-1.,0.,0.));
#763=DIRECTION('',(0.,1.,0.));
#764=DIRECTION('',(-1.,0.,0.));
#765=DIRECTION('',(-1.50845519650157E-16,-1.,0.));
#766=DIRECTION('',(1.,0.,0.));
#767=DIRECTION('',(0.,-1.,0.));
#768=DIRECTION('',(1.,0.,0.));
#769=DIRECTION('',(0.,-1.,0.));
#770=DIRECTION('',(-1.,0.,0.));
#771=DIRECTION('',(0.,-1.,0.));
#772=DIRECTION('',(1.,0.,0.));
#773=DIRECTION('',(0.,1.,0.));
#774=DIRECTION('',(1.,0.,0.));
#775=DIRECTION('',(-1.50845519650157E-16,-1.,0.));
#776=DIRECTION('',(1.,0.,0.));
#777=DIRECTION('',(0.,-1.,0.));
#778=DIRECTION('',(1.,0.,0.));
#779=DIRECTION('',(-1.50845519650157E-16,-1.,0.));
#780=DIRECTION('',(-1.,0.,0.));
#781=DIRECTION('',(0.,1.,0.));
#782=DIRECTION('',(1.,0.,0.));
#783=DIRECTION('',(0.,1.,0.));
#784=DIRECTION('',(0.,0.,1.));
#785=DIRECTION('',(1.,0.,0.));
#786=DIRECTION('',(1.,0.,0.));
#787=DIRECTION('',(-2.31296463463574E-16,-1.,0.));
#788=DIRECTION('',(1.,0.,0.));
#789=DIRECTION('',(-2.31296463463574E-16,-1.,0.));
#790=DIRECTION('',(0.,1.,0.));
#791=DIRECTION('',(1.,0.,0.));
#792=DIRECTION('',(0.,1.,0.));
#793=DIRECTION('',(1.,0.,0.));
#794=DIRECTION('',(0.,1.,0.));
#795=DIRECTION('',(-1.,0.,0.));
#796=DIRECTION('',(-1.50845519650157E-16,-1.,0.));
#797=DIRECTION('',(1.,0.,0.));
#798=DIRECTION('',(0.,-1.,0.));
#799=DIRECTION('',(1.,0.,0.));
#800=DIRECTION('',(-1.50845519650157E-16,-1.,0.));
#801=DIRECTION('',(1.,0.,0.));
#802=DIRECTION('',(0.,1.,0.));
#803=DIRECTION('',(1.,0.,0.));
#804=DIRECTION('',(0.,-1.,0.));
#805=DIRECTION('',(-1.,0.,0.));
#806=DIRECTION('',(0.,-1.,0.));
#807=DIRECTION('',(1.,0.,0.));
#808=DIRECTION('',(0.,-1.,0.));
#809=DIRECTION('',(1.,0.,0.));
#810=DIRECTION('',(-1.50845519650157E-16,-1.,0.));
#811=DIRECTION('',(-1.,0.,0.));
#812=DIRECTION('',(0.,1.,0.));
#813=DIRECTION('',(-1.,0.,0.));
#814=DIRECTION('',(-1.50845519650157E-16,-1.,0.));
#815=DIRECTION('',(-1.,0.,0.));
#816=DIRECTION('',(0.,-1.,0.));
#817=DIRECTION('',(-1.,1.50845519650157E-16,0.));
#818=DIRECTION('',(-1.50845519650157E-16,-1.,0.));
#819=DIRECTION('',(0.,0.,1.));
#820=DIRECTION('',(0.,0.,1.));
#821=DIRECTION('',(-1.,1.50845519650157E-16,0.));
#822=DIRECTION('',(-1.50845519650157E-16,-1.,0.));
#823=DIRECTION('',(0.,0.,1.));
#824=DIRECTION('',(0.,0.,1.));
#825=DIRECTION('',(0.,-1.,0.));
#826=DIRECTION('',(0.,0.,-1.));
#827=DIRECTION('',(0.,0.,1.));
#828=DIRECTION('',(0.,0.,1.));
#829=DIRECTION('',(0.,-1.,0.));
#830=DIRECTION('',(0.,0.,-1.));
#831=DIRECTION('',(0.,0.,1.));
#832=DIRECTION('',(0.,0.,1.));
#833=DIRECTION('',(-1.,1.50845519650157E-16,0.));
#834=DIRECTION('',(-1.50845519650157E-16,-1.,0.));
#835=DIRECTION('',(0.,0.,1.));
#836=DIRECTION('',(0.,0.,1.));
#837=DIRECTION('',(0.,1.,0.));
#838=DIRECTION('',(0.,0.,1.));
#839=DIRECTION('',(0.,0.,-1.));
#840=DIRECTION('',(0.,0.,-1.));
#841=DIRECTION('',(1.,-2.31296463463574E-16,0.));
#842=DIRECTION('',(2.31296463463574E-16,1.,0.));
#843=DIRECTION('',(0.,0.,-1.));
#844=DIRECTION('',(0.,1.,0.));
#845=DIRECTION('',(0.,0.,1.));
#846=DIRECTION('',(0.,0.,-1.));
#847=DIRECTION('',(1.,-2.31296463463574E-16,0.));
#848=DIRECTION('',(2.31296463463574E-16,1.,0.));
#849=DIRECTION('',(0.,-1.,0.));
#850=DIRECTION('',(0.,0.,-1.));
#851=DIRECTION('',(0.,0.,1.));
#852=DIRECTION('',(0.,0.,1.));
#853=DIRECTION('',(-1.,1.50845519650157E-16,0.));
#854=DIRECTION('',(-1.50845519650157E-16,-1.,0.));
#855=DIRECTION('',(0.,0.,1.));
#856=DIRECTION('',(0.,0.,1.));
#857=DIRECTION('',(-1.,0.,0.));
#858=DIRECTION('',(0.,0.,1.));
#859=DIRECTION('',(0.,0.,1.));
#860=DIRECTION('',(0.,-1.,0.));
#861=DIRECTION('',(0.,0.,-1.));
#862=DIRECTION('',(0.,1.,0.));
#863=DIRECTION('',(0.,0.,1.));
#864=DIRECTION('',(0.,0.,1.));
#865=DIRECTION('',(1.,0.,0.));
#866=DIRECTION('',(0.,0.,-1.));
#867=DIRECTION('',(0.,0.,1.));
#868=DIRECTION('',(0.,1.,0.));
#869=DIRECTION('',(0.,0.,1.));
#870=DIRECTION('',(0.,-1.,0.));
#871=DIRECTION('',(0.,0.,-1.));
#872=DIRECTION('',(0.,0.,1.));
#873=DIRECTION('',(1.,0.,0.));
#874=DIRECTION('',(0.,0.,-1.));
#875=DIRECTION('',(-1.,0.,0.));
#876=DIRECTION('',(0.,0.,1.));
#877=DIRECTION('',(0.,0.,1.));
#878=DIRECTION('',(0.,1.,0.));
#879=DIRECTION('',(0.,0.,1.));
#880=DIRECTION('',(0.,0.,1.));
#881=DIRECTION('',(-1.,0.,0.));
#882=DIRECTION('',(0.,0.,1.));
#883=DIRECTION('',(0.,1.,0.));
#884=DIRECTION('',(0.,0.,1.));
#885=DIRECTION('',(0.,0.,1.));
#886=DIRECTION('',(1.,0.,0.));
#887=DIRECTION('',(0.,0.,-1.));
#888=DIRECTION('',(0.,-1.,0.));
#889=DIRECTION('',(0.,0.,-1.));
#890=DIRECTION('',(0.,0.,1.));
#891=DIRECTION('',(0.,-1.,0.));
#892=DIRECTION('',(0.,0.,-1.));
#893=DIRECTION('',(0.,0.,1.));
#894=DIRECTION('',(-1.,0.,0.));
#895=DIRECTION('',(0.,0.,1.));
#896=DIRECTION('',(0.,1.,0.));
#897=DIRECTION('',(0.,0.,1.));
#898=DIRECTION('',(0.,0.,1.));
#899=DIRECTION('',(-1.,0.,0.));
#900=DIRECTION('',(0.,0.,1.));
#901=DIRECTION('',(1.,0.,0.));
#902=DIRECTION('',(0.,0.,-1.));
#903=DIRECTION('',(0.,0.,1.));
#904=DIRECTION('',(0.,-1.,0.));
#905=DIRECTION('',(0.,0.,-1.));
#906=DIRECTION('',(0.,0.,1.));
#907=DIRECTION('',(1.,0.,0.));
#908=DIRECTION('',(0.,0.,-1.));
#909=CARTESIAN_POINT('',(0.,0.,0.));
#910=CARTESIAN_POINT('',(-3.46944695195361E-18,-0.0115,-0.0404835211631906));
#911=CARTESIAN_POINT('',(-0.0115,-0.0115,-0.023));
#912=CARTESIAN_POINT('',(-0.0115,-0.0115,0.));
#913=CARTESIAN_POINT('',(-0.0115,-0.0115,0.002));
#914=CARTESIAN_POINT('',(0.,-0.0115,0.));
#915=CARTESIAN_POINT('',(-0.0135,-0.0115,0.));
#916=CARTESIAN_POINT('',(-0.0135,-0.0115,-0.023));
#917=CARTESIAN_POINT('',(-0.0135,-0.0115,0.002));
#918=CARTESIAN_POINT('',(-3.46944695195361E-18,-0.0115,0.002));
#919=CARTESIAN_POINT('',(0.,0.,0.002));
#920=CARTESIAN_POINT('',(3.46944695195361E-18,0.015,0.002));
#921=CARTESIAN_POINT('',(-0.015,0.015,0.002));
#922=CARTESIAN_POINT('',(0.015,0.015,0.002));
#923=CARTESIAN_POINT('',(-0.015,0.,0.002));
#924=CARTESIAN_POINT('',(-0.015,-0.015,0.002));
#925=CARTESIAN_POINT('',(-3.46944695195361E-18,-0.015,0.002));
#926=CARTESIAN_POINT('',(0.015,-0.015,0.002));
#927=CARTESIAN_POINT('',(0.015,0.,0.002));
#928=CARTESIAN_POINT('',(-0.0112,-0.0135,0.002));
#929=CARTESIAN_POINT('',(-0.0115,-0.0135,0.002));
#930=CARTESIAN_POINT('',(-0.0109,-0.0135,0.002));
#931=CARTESIAN_POINT('',(-0.0115,-0.0125,0.002));
#932=CARTESIAN_POINT('',(-0.0135,-0.0112,0.002));
#933=CARTESIAN_POINT('',(-0.0135,-0.0109,0.002));
#934=CARTESIAN_POINT('',(-0.0125,-0.0109,0.002));
#935=CARTESIAN_POINT('',(-0.0115,-0.0109,0.002));
#936=CARTESIAN_POINT('',(-0.0115,0.,0.002));
#937=CARTESIAN_POINT('',(-0.0115,0.0109,0.002));
#938=CARTESIAN_POINT('',(-0.0125,0.0109,0.002));
#939=CARTESIAN_POINT('',(-0.0135,0.0109,0.002));
#940=CARTESIAN_POINT('',(-0.0135,0.0112,0.002));
#941=CARTESIAN_POINT('',(-0.0135,0.0115,0.002));
#942=CARTESIAN_POINT('',(-0.0125,0.0115,0.002));
#943=CARTESIAN_POINT('',(-0.0115,0.0115,0.002));
#944=CARTESIAN_POINT('',(-0.0115,0.,0.002));
#945=CARTESIAN_POINT('',(-0.0115,0.0135,0.002));
#946=CARTESIAN_POINT('',(-0.0112,0.0135,0.002));
#947=CARTESIAN_POINT('',(-0.0109,0.0135,0.002));
#948=CARTESIAN_POINT('',(-0.0109,0.0125,0.002));
#949=CARTESIAN_POINT('',(-0.0109,0.0115,0.002));
#950=CARTESIAN_POINT('',(3.46944695195361E-18,0.0115,0.002));
#951=CARTESIAN_POINT('',(0.0109,0.0115,0.002));
#952=CARTESIAN_POINT('',(0.0109,0.0125,0.002));
#953=CARTESIAN_POINT('',(0.0109,0.0135,0.002));
#954=CARTESIAN_POINT('',(0.0112,0.0135,0.002));
#955=CARTESIAN_POINT('',(0.0115,0.0135,0.002));
#956=CARTESIAN_POINT('',(0.0115,0.0125,0.002));
#957=CARTESIAN_POINT('',(0.0115,0.0115,0.002));
#958=CARTESIAN_POINT('',(3.46944695195361E-18,0.0115,0.002));
#959=CARTESIAN_POINT('',(0.0135,0.0115,0.002));
#960=CARTESIAN_POINT('',(0.0135,0.0112,0.002));
#961=CARTESIAN_POINT('',(0.0135,0.0109,0.002));
#962=CARTESIAN_POINT('',(0.0125,0.0109,0.002));
#963=CARTESIAN_POINT('',(0.0115,0.0109,0.002));
#964=CARTESIAN_POINT('',(0.0115,0.,0.002));
#965=CARTESIAN_POINT('',(0.0115,-0.0109,0.002));
#966=CARTESIAN_POINT('',(0.0125,-0.0109,0.002));
#967=CARTESIAN_POINT('',(0.0135,-0.0109,0.002));
#968=CARTESIAN_POINT('',(0.0135,-0.0112,0.002));
#969=CARTESIAN_POINT('',(0.0135,-0.0115,0.002));
#970=CARTESIAN_POINT('',(0.0125,-0.0115,0.002));
#971=CARTESIAN_POINT('',(0.0115,-0.0115,0.002));
#972=CARTESIAN_POINT('',(0.0115,0.,0.002));
#973=CARTESIAN_POINT('',(0.0115,-0.0135,0.002));
#974=CARTESIAN_POINT('',(0.0112,-0.0135,0.002));
#975=CARTESIAN_POINT('',(0.0109,-0.0135,0.002));
#976=CARTESIAN_POINT('',(0.0109,-0.0125,0.002));
#977=CARTESIAN_POINT('',(0.0109,-0.0115,0.002));
#978=CARTESIAN_POINT('',(-3.46944695195361E-18,-0.0115,0.002));
#979=CARTESIAN_POINT('',(-0.0109,-0.0115,0.002));
#980=CARTESIAN_POINT('',(-0.0109,-0.0125,0.002));
#981=CARTESIAN_POINT('',(0.,0.,0.));
#982=CARTESIAN_POINT('',(3.46944695195361E-18,0.015,0.));
#983=CARTESIAN_POINT('',(-0.015,0.015,0.));
#984=CARTESIAN_POINT('',(0.015,0.015,0.));
#985=CARTESIAN_POINT('',(0.015,0.,0.));
#986=CARTESIAN_POINT('',(0.015,-0.015,0.));
#987=CARTESIAN_POINT('',(-3.46944695195361E-18,-0.015,0.));
#988=CARTESIAN_POINT('',(-0.015,-0.015,0.));
#989=CARTESIAN_POINT('',(-0.015,0.,0.));
#990=CARTESIAN_POINT('',(-0.0115,0.,0.));
#991=CARTESIAN_POINT('',(-0.0115,-0.0135,0.));
#992=CARTESIAN_POINT('',(0.,-0.0135,0.));
#993=CARTESIAN_POINT('',(-0.0109,-0.0135,0.));
#994=CARTESIAN_POINT('',(-0.0109,0.,0.));
#995=CARTESIAN_POINT('',(-0.0109,-0.0115,0.));
#996=CARTESIAN_POINT('',(0.,-0.0115,0.));
#997=CARTESIAN_POINT('',(0.0109,-0.0115,0.));
#998=CARTESIAN_POINT('',(0.0109,0.,0.));
#999=CARTESIAN_POINT('',(0.0109,-0.0135,0.));
#1000=CARTESIAN_POINT('',(0.,-0.0135,0.));
#1001=CARTESIAN_POINT('',(0.0115,-0.0135,0.));
#1002=CARTESIAN_POINT('',(0.0115,-1.73472347597681E-18,0.));
#1003=CARTESIAN_POINT('',(0.0115,-0.0115,0.));
#1004=CARTESIAN_POINT('',(0.,-0.0115,0.));
#1005=CARTESIAN_POINT('',(0.0135,-0.0115,0.));
#1006=CARTESIAN_POINT('',(0.0135,0.,0.));
#1007=CARTESIAN_POINT('',(0.0135,-0.0109,0.));
#1008=CARTESIAN_POINT('',(0.,-0.0109,0.));
#1009=CARTESIAN_POINT('',(0.0115,-0.0109,0.));
#1010=CARTESIAN_POINT('',(0.0115,-1.73472347597681E-18,0.));
#1011=CARTESIAN_POINT('',(0.0115,0.0109,0.));
#1012=CARTESIAN_POINT('',(0.,0.0109,0.));
#1013=CARTESIAN_POINT('',(0.0135,0.0109,0.));
#1014=CARTESIAN_POINT('',(0.0135,0.,0.));
#1015=CARTESIAN_POINT('',(0.0135,0.0115,0.));
#1016=CARTESIAN_POINT('',(0.,0.0115,0.));
#1017=CARTESIAN_POINT('',(0.0115,0.0115,0.));
#1018=CARTESIAN_POINT('',(0.0115,0.,0.));
#1019=CARTESIAN_POINT('',(0.0115,0.0135,0.));
#1020=CARTESIAN_POINT('',(0.,0.0135,0.));
#1021=CARTESIAN_POINT('',(0.0109,0.0135,0.));
#1022=CARTESIAN_POINT('',(0.0109,0.,0.));
#1023=CARTESIAN_POINT('',(0.0109,0.0115,0.));
#1024=CARTESIAN_POINT('',(0.,0.0115,0.));
#1025=CARTESIAN_POINT('',(-0.0109,0.0115,0.));
#1026=CARTESIAN_POINT('',(-0.0109,0.,0.));
#1027=CARTESIAN_POINT('',(-0.0109,0.0135,0.));
#1028=CARTESIAN_POINT('',(0.,0.0135,0.));
#1029=CARTESIAN_POINT('',(-0.0115,0.0135,0.));
#1030=CARTESIAN_POINT('',(-0.0115,1.7347234759768E-18,0.));
#1031=CARTESIAN_POINT('',(-0.0115,0.0115,0.));
#1032=CARTESIAN_POINT('',(0.,0.0115,0.));
#1033=CARTESIAN_POINT('',(-0.0135,0.0115,0.));
#1034=CARTESIAN_POINT('',(-0.0135,0.,0.));
#1035=CARTESIAN_POINT('',(-0.0135,0.0109,0.));
#1036=CARTESIAN_POINT('',(0.,0.0109,0.));
#1037=CARTESIAN_POINT('',(-0.0115,0.0109,0.));
#1038=CARTESIAN_POINT('',(-0.0115,1.7347234759768E-18,0.));
#1039=CARTESIAN_POINT('',(-0.0115,-0.0109,0.));
#1040=CARTESIAN_POINT('',(0.,-0.0109,0.));
#1041=CARTESIAN_POINT('',(-0.0135,-0.0109,0.));
#1042=CARTESIAN_POINT('',(-0.0135,0.,0.));
#1043=CARTESIAN_POINT('',(-0.0115,0.,-0.0404835211631906));
#1044=CARTESIAN_POINT('',(-0.0115,-0.0109,-0.023));
#1045=CARTESIAN_POINT('',(-0.0115,0.0109,-0.023));
#1046=CARTESIAN_POINT('',(0.0115,0.,-0.0404835211631906));
#1047=CARTESIAN_POINT('',(0.0115,-0.0109,-0.023));
#1048=CARTESIAN_POINT('',(0.0115,0.0109,-0.023));
#1049=CARTESIAN_POINT('',(-3.46944695195361E-18,-0.0115,-0.0404835211631906));
#1050=CARTESIAN_POINT('',(-0.0109,-0.0115,-0.023));
#1051=CARTESIAN_POINT('',(0.0109,-0.0115,-0.023));
#1052=CARTESIAN_POINT('',(3.46944695195361E-18,0.0115,-0.0404835211631906));
#1053=CARTESIAN_POINT('',(0.0109,0.0115,-0.023));
#1054=CARTESIAN_POINT('',(-0.0109,0.0115,-0.023));
#1055=CARTESIAN_POINT('',(-0.0115,0.,-0.0404835211631906));
#1056=CARTESIAN_POINT('',(-0.0115,0.0115,-0.023));
#1057=CARTESIAN_POINT('',(-0.0115,0.0135,-0.023));
#1058=CARTESIAN_POINT('',(3.46944695195361E-18,0.015,0.002));
#1059=CARTESIAN_POINT('',(-0.015,0.015,0.002));
#1060=CARTESIAN_POINT('',(0.015,0.015,0.002));
#1061=CARTESIAN_POINT('',(-0.015,0.,0.002));
#1062=CARTESIAN_POINT('',(-0.015,-0.015,0.002));
#1063=CARTESIAN_POINT('',(-3.46944695195361E-18,-0.015,0.002));
#1064=CARTESIAN_POINT('',(0.015,-0.015,0.002));
#1065=CARTESIAN_POINT('',(0.015,0.,0.002));
#1066=CARTESIAN_POINT('',(3.46944695195361E-18,0.0115,-0.0404835211631906));
#1067=CARTESIAN_POINT('',(0.0115,0.0115,-0.023));
#1068=CARTESIAN_POINT('',(0.0135,0.0115,-0.023));
#1069=CARTESIAN_POINT('',(0.0115,0.,-0.0404835211631906));
#1070=CARTESIAN_POINT('',(0.0115,-0.0115,-0.023));
#1071=CARTESIAN_POINT('',(0.0115,-0.0135,-0.023));
#1072=CARTESIAN_POINT('',(-0.0109,0.0125,-0.023));
#1073=CARTESIAN_POINT('',(-0.0109,0.0135,-0.023));
#1074=CARTESIAN_POINT('',(-0.0112,0.0135,-0.023));
#1075=CARTESIAN_POINT('',(-0.0125,0.0115,-0.023));
#1076=CARTESIAN_POINT('',(-0.0135,0.0115,-0.023));
#1077=CARTESIAN_POINT('',(-0.0135,0.0112,-0.023));
#1078=CARTESIAN_POINT('',(-0.0135,0.0109,-0.023));
#1079=CARTESIAN_POINT('',(-0.0125,0.0109,-0.023));
#1080=CARTESIAN_POINT('',(0.0125,0.0109,-0.023));
#1081=CARTESIAN_POINT('',(0.0135,0.0109,-0.023));
#1082=CARTESIAN_POINT('',(0.0135,0.0112,-0.023));
#1083=CARTESIAN_POINT('',(0.0115,0.0125,-0.023));
#1084=CARTESIAN_POINT('',(0.0115,0.0135,-0.023));
#1085=CARTESIAN_POINT('',(0.0112,0.0135,-0.023));
#1086=CARTESIAN_POINT('',(0.0109,0.0135,-0.023));
#1087=CARTESIAN_POINT('',(0.0109,0.0125,-0.023));
#1088=CARTESIAN_POINT('',(0.0112,-0.0135,-0.023));
#1089=CARTESIAN_POINT('',(0.0109,-0.0135,-0.023));
#1090=CARTESIAN_POINT('',(0.0109,-0.0125,-0.023));
#1091=CARTESIAN_POINT('',(0.0125,-0.0109,-0.023));
#1092=CARTESIAN_POINT('',(0.0135,-0.0109,-0.023));
#1093=CARTESIAN_POINT('',(0.0125,-0.0115,-0.023));
#1094=CARTESIAN_POINT('',(0.0135,-0.0115,-0.023));
#1095=CARTESIAN_POINT('',(0.0135,-0.0112,-0.023));
#1096=CARTESIAN_POINT('',(-0.0125,-0.0109,-0.023));
#1097=CARTESIAN_POINT('',(-0.0135,-0.0109,-0.023));
#1098=CARTESIAN_POINT('',(-0.0135,-0.0112,-0.023));
#1099=CARTESIAN_POINT('',(-0.0115,-0.0125,-0.023));
#1100=CARTESIAN_POINT('',(-0.0115,-0.0135,-0.023));
#1101=CARTESIAN_POINT('',(-0.0112,-0.0135,-0.023));
#1102=CARTESIAN_POINT('',(-0.0109,-0.0135,-0.023));
#1103=CARTESIAN_POINT('',(-0.0109,-0.0125,-0.023));
#1104=MECHANICAL_DESIGN_GEOMETRIC_PRESENTATION_REPRESENTATION('',(#697),
#1105);
#1105=(
GEOMETRIC_REPRESENTATION_CONTEXT(3)
GLOBAL_UNCERTAINTY_ASSIGNED_CONTEXT((#1106))
GLOBAL_UNIT_ASSIGNED_CONTEXT((#1109,#1108,#1107))
REPRESENTATION_CONTEXT('Pad Guide','TOP_LEVEL_ASSEMBLY_PART')
);
#1106=UNCERTAINTY_MEASURE_WITH_UNIT(LENGTH_MEASURE(1.E-8),#1109,
'DISTANCE_ACCURACY_VALUE','Maximum Tolerance applied to model');
#1107=(
NAMED_UNIT(*)
SI_UNIT($,.STERADIAN.)
SOLID_ANGLE_UNIT()
);
#1108=(
NAMED_UNIT(*)
PLANE_ANGLE_UNIT()
SI_UNIT($,.RADIAN.)
);
#1109=(
LENGTH_UNIT()
NAMED_UNIT(*)
SI_UNIT($,.METRE.)
);
#1110=PRODUCT_DEFINITION_SHAPE('','',#1111);
#1111=PRODUCT_DEFINITION('','',#1113,#1112);
#1112=PRODUCT_DEFINITION_CONTEXT('',#1119,'design');
#1113=PRODUCT_DEFINITION_FORMATION_WITH_SPECIFIED_SOURCE('','',#1115,
 .NOT_KNOWN.);
#1114=PRODUCT_RELATED_PRODUCT_CATEGORY('','',(#1115));
#1115=PRODUCT('Pad Guide','Pad Guide','Pad Guide',(#1117));
#1116=PRODUCT_CATEGORY('','');
#1117=PRODUCT_CONTEXT('',#1119,'mechanical');
#1118=APPLICATION_PROTOCOL_DEFINITION('international standard',
'ap242_managed_model_based_3d_engineering',2020,#1119);
#1119=APPLICATION_CONTEXT('managed model based 3d engineering');
ENDSEC;
END-ISO-10303-21;
